<svg xmlns="http://www.w3.org/2000/svg" xmlns:xlink="http://www.w3.org/1999/xlink" width="2048" zoomAndPan="magnify" viewBox="0 0 1536 821.249975" height="1095" preserveAspectRatio="xMidYMid meet" version="1.2"><defs><clipPath id="a7de9cad36"><path d="M 442.734375 84.988281 L 1093.265625 84.988281 L 1093.265625 735.515625 L 442.734375 735.515625 Z M 442.734375 84.988281 "/></clipPath><clipPath id="1cbd8c4ca6"><path d="M 768 84.988281 C 588.363281 84.988281 442.734375 230.613281 442.734375 410.25 C 442.734375 589.886719 588.363281 735.515625 768 735.515625 C 947.636719 735.515625 1093.265625 589.886719 1093.265625 410.25 C 1093.265625 230.613281 947.636719 84.988281 768 84.988281 Z M 768 84.988281 "/></clipPath><linearGradient x1="-0.00000331635" gradientTransform="matrix(2.541124,0,0,2.541124,442.736085,84.986404)" y1="128" x2="255.999977" gradientUnits="userSpaceOnUse" y2="128" id="b00f737637"><stop style="stop-color:#8c52ff;stop-opacity:1;" offset="0"/><stop style="stop-color:#8c52fe;stop-opacity:1;" offset="0.00390625"/><stop style="stop-color:#8d53fe;stop-opacity:1;" offset="0.0078125"/><stop style="stop-color:#8d53fd;stop-opacity:1;" offset="0.0117188"/><stop style="stop-color:#8e53fc;stop-opacity:1;" offset="0.015625"/><stop style="stop-color:#8e53fc;stop-opacity:1;" offset="0.0195312"/><stop style="stop-color:#8f54fb;stop-opacity:1;" offset="0.0234375"/><stop style="stop-color:#8f54fa;stop-opacity:1;" offset="0.0273437"/><stop style="stop-color:#9054f9;stop-opacity:1;" offset="0.03125"/><stop style="stop-color:#9054f9;stop-opacity:1;" offset="0.0351562"/><stop style="stop-color:#9055f8;stop-opacity:1;" offset="0.0390625"/><stop style="stop-color:#9155f7;stop-opacity:1;" offset="0.0429688"/><stop style="stop-color:#9155f7;stop-opacity:1;" offset="0.046875"/><stop style="stop-color:#9255f6;stop-opacity:1;" offset="0.0507812"/><stop style="stop-color:#9256f5;stop-opacity:1;" offset="0.0546875"/><stop style="stop-color:#9356f5;stop-opacity:1;" offset="0.0585937"/><stop style="stop-color:#9356f4;stop-opacity:1;" offset="0.0625"/><stop style="stop-color:#9456f3;stop-opacity:1;" offset="0.0664062"/><stop style="stop-color:#9457f2;stop-opacity:1;" offset="0.0703125"/><stop style="stop-color:#9557f2;stop-opacity:1;" offset="0.0742188"/><stop style="stop-color:#9557f1;stop-opacity:1;" offset="0.078125"/><stop style="stop-color:#9557f0;stop-opacity:1;" offset="0.0820312"/><stop style="stop-color:#9658f0;stop-opacity:1;" offset="0.0859375"/><stop style="stop-color:#9658ef;stop-opacity:1;" offset="0.0898438"/><stop style="stop-color:#9758ee;stop-opacity:1;" offset="0.09375"/><stop style="stop-color:#9758ee;stop-opacity:1;" offset="0.0976562"/><stop style="stop-color:#9859ed;stop-opacity:1;" offset="0.101562"/><stop style="stop-color:#9859ec;stop-opacity:1;" offset="0.105469"/><stop style="stop-color:#9959ec;stop-opacity:1;" offset="0.109375"/><stop style="stop-color:#9959eb;stop-opacity:1;" offset="0.113281"/><stop style="stop-color:#9959ea;stop-opacity:1;" offset="0.117187"/><stop style="stop-color:#9a5ae9;stop-opacity:1;" offset="0.121094"/><stop style="stop-color:#9a5ae9;stop-opacity:1;" offset="0.125"/><stop style="stop-color:#9b5ae8;stop-opacity:1;" offset="0.128906"/><stop style="stop-color:#9b5ae7;stop-opacity:1;" offset="0.132812"/><stop style="stop-color:#9c5be7;stop-opacity:1;" offset="0.136719"/><stop style="stop-color:#9c5be6;stop-opacity:1;" offset="0.140625"/><stop style="stop-color:#9d5be5;stop-opacity:1;" offset="0.144531"/><stop style="stop-color:#9d5be5;stop-opacity:1;" offset="0.148438"/><stop style="stop-color:#9e5ce4;stop-opacity:1;" offset="0.152344"/><stop style="stop-color:#9e5ce3;stop-opacity:1;" offset="0.15625"/><stop style="stop-color:#9e5ce2;stop-opacity:1;" offset="0.160156"/><stop style="stop-color:#9f5ce2;stop-opacity:1;" offset="0.164062"/><stop style="stop-color:#9f5de1;stop-opacity:1;" offset="0.167969"/><stop style="stop-color:#a05de0;stop-opacity:1;" offset="0.171875"/><stop style="stop-color:#a05de0;stop-opacity:1;" offset="0.175781"/><stop style="stop-color:#a15ddf;stop-opacity:1;" offset="0.179688"/><stop style="stop-color:#a15ede;stop-opacity:1;" offset="0.183594"/><stop style="stop-color:#a25ede;stop-opacity:1;" offset="0.1875"/><stop style="stop-color:#a25edd;stop-opacity:1;" offset="0.191406"/><stop style="stop-color:#a25edc;stop-opacity:1;" offset="0.195312"/><stop style="stop-color:#a35fdc;stop-opacity:1;" offset="0.199219"/><stop style="stop-color:#a35fdb;stop-opacity:1;" offset="0.203125"/><stop style="stop-color:#a45fda;stop-opacity:1;" offset="0.207031"/><stop style="stop-color:#a45fd9;stop-opacity:1;" offset="0.210937"/><stop style="stop-color:#a560d9;stop-opacity:1;" offset="0.214844"/><stop style="stop-color:#a560d8;stop-opacity:1;" offset="0.21875"/><stop style="stop-color:#a660d7;stop-opacity:1;" offset="0.222656"/><stop style="stop-color:#a660d7;stop-opacity:1;" offset="0.226562"/><stop style="stop-color:#a661d6;stop-opacity:1;" offset="0.230469"/><stop style="stop-color:#a761d5;stop-opacity:1;" offset="0.234375"/><stop style="stop-color:#a761d5;stop-opacity:1;" offset="0.238281"/><stop style="stop-color:#a861d4;stop-opacity:1;" offset="0.242188"/><stop style="stop-color:#a862d3;stop-opacity:1;" offset="0.246094"/><stop style="stop-color:#a962d2;stop-opacity:1;" offset="0.25"/><stop style="stop-color:#a962d2;stop-opacity:1;" offset="0.253906"/><stop style="stop-color:#aa62d1;stop-opacity:1;" offset="0.257812"/><stop style="stop-color:#aa63d0;stop-opacity:1;" offset="0.261719"/><stop style="stop-color:#ab63d0;stop-opacity:1;" offset="0.265625"/><stop style="stop-color:#ab63cf;stop-opacity:1;" offset="0.269531"/><stop style="stop-color:#ab63ce;stop-opacity:1;" offset="0.273438"/><stop style="stop-color:#ac64ce;stop-opacity:1;" offset="0.277344"/><stop style="stop-color:#ac64cd;stop-opacity:1;" offset="0.28125"/><stop style="stop-color:#ad64cc;stop-opacity:1;" offset="0.285156"/><stop style="stop-color:#ad64cc;stop-opacity:1;" offset="0.289062"/><stop style="stop-color:#ae65cb;stop-opacity:1;" offset="0.292969"/><stop style="stop-color:#ae65ca;stop-opacity:1;" offset="0.296875"/><stop style="stop-color:#af65c9;stop-opacity:1;" offset="0.300781"/><stop style="stop-color:#af65c9;stop-opacity:1;" offset="0.304688"/><stop style="stop-color:#af66c8;stop-opacity:1;" offset="0.308594"/><stop style="stop-color:#b066c7;stop-opacity:1;" offset="0.3125"/><stop style="stop-color:#b066c7;stop-opacity:1;" offset="0.316406"/><stop style="stop-color:#b166c6;stop-opacity:1;" offset="0.320312"/><stop style="stop-color:#b167c5;stop-opacity:1;" offset="0.324219"/><stop style="stop-color:#b267c5;stop-opacity:1;" offset="0.328125"/><stop style="stop-color:#b267c4;stop-opacity:1;" offset="0.332031"/><stop style="stop-color:#b367c3;stop-opacity:1;" offset="0.335938"/><stop style="stop-color:#b368c3;stop-opacity:1;" offset="0.339844"/><stop style="stop-color:#b468c2;stop-opacity:1;" offset="0.34375"/><stop style="stop-color:#b468c1;stop-opacity:1;" offset="0.347656"/><stop style="stop-color:#b468c0;stop-opacity:1;" offset="0.351562"/><stop style="stop-color:#b568c0;stop-opacity:1;" offset="0.355469"/><stop style="stop-color:#b569bf;stop-opacity:1;" offset="0.359375"/><stop style="stop-color:#b669be;stop-opacity:1;" offset="0.363281"/><stop style="stop-color:#b669be;stop-opacity:1;" offset="0.367188"/><stop style="stop-color:#b769bd;stop-opacity:1;" offset="0.371094"/><stop style="stop-color:#b76abc;stop-opacity:1;" offset="0.375"/><stop style="stop-color:#b86abc;stop-opacity:1;" offset="0.378906"/><stop style="stop-color:#b86abb;stop-opacity:1;" offset="0.382812"/><stop style="stop-color:#b86aba;stop-opacity:1;" offset="0.386719"/><stop style="stop-color:#b96bb9;stop-opacity:1;" offset="0.390625"/><stop style="stop-color:#b96bb9;stop-opacity:1;" offset="0.394531"/><stop style="stop-color:#ba6bb8;stop-opacity:1;" offset="0.398438"/><stop style="stop-color:#ba6bb7;stop-opacity:1;" offset="0.402344"/><stop style="stop-color:#bb6cb7;stop-opacity:1;" offset="0.40625"/><stop style="stop-color:#bb6cb6;stop-opacity:1;" offset="0.410156"/><stop style="stop-color:#bc6cb5;stop-opacity:1;" offset="0.414062"/><stop style="stop-color:#bc6cb5;stop-opacity:1;" offset="0.417969"/><stop style="stop-color:#bd6db4;stop-opacity:1;" offset="0.421875"/><stop style="stop-color:#bd6db3;stop-opacity:1;" offset="0.425781"/><stop style="stop-color:#bd6db3;stop-opacity:1;" offset="0.429688"/><stop style="stop-color:#be6db2;stop-opacity:1;" offset="0.433594"/><stop style="stop-color:#be6eb1;stop-opacity:1;" offset="0.4375"/><stop style="stop-color:#bf6eb0;stop-opacity:1;" offset="0.441406"/><stop style="stop-color:#bf6eb0;stop-opacity:1;" offset="0.445312"/><stop style="stop-color:#c06eaf;stop-opacity:1;" offset="0.449219"/><stop style="stop-color:#c06fae;stop-opacity:1;" offset="0.453125"/><stop style="stop-color:#c16fae;stop-opacity:1;" offset="0.457031"/><stop style="stop-color:#c16fad;stop-opacity:1;" offset="0.460938"/><stop style="stop-color:#c16fac;stop-opacity:1;" offset="0.464844"/><stop style="stop-color:#c270ac;stop-opacity:1;" offset="0.46875"/><stop style="stop-color:#c270ab;stop-opacity:1;" offset="0.472656"/><stop style="stop-color:#c370aa;stop-opacity:1;" offset="0.476562"/><stop style="stop-color:#c370a9;stop-opacity:1;" offset="0.480469"/><stop style="stop-color:#c471a9;stop-opacity:1;" offset="0.484375"/><stop style="stop-color:#c471a8;stop-opacity:1;" offset="0.488281"/><stop style="stop-color:#c571a7;stop-opacity:1;" offset="0.492188"/><stop style="stop-color:#c571a7;stop-opacity:1;" offset="0.496094"/><stop style="stop-color:#c572a6;stop-opacity:1;" offset="0.5"/><stop style="stop-color:#c672a5;stop-opacity:1;" offset="0.503906"/><stop style="stop-color:#c672a5;stop-opacity:1;" offset="0.507812"/><stop style="stop-color:#c772a4;stop-opacity:1;" offset="0.511719"/><stop style="stop-color:#c773a3;stop-opacity:1;" offset="0.515625"/><stop style="stop-color:#c873a3;stop-opacity:1;" offset="0.519531"/><stop style="stop-color:#c873a2;stop-opacity:1;" offset="0.523438"/><stop style="stop-color:#c973a1;stop-opacity:1;" offset="0.527344"/><stop style="stop-color:#c974a0;stop-opacity:1;" offset="0.53125"/><stop style="stop-color:#ca74a0;stop-opacity:1;" offset="0.535156"/><stop style="stop-color:#ca749f;stop-opacity:1;" offset="0.539063"/><stop style="stop-color:#ca749e;stop-opacity:1;" offset="0.542969"/><stop style="stop-color:#cb759e;stop-opacity:1;" offset="0.546875"/><stop style="stop-color:#cb759d;stop-opacity:1;" offset="0.550781"/><stop style="stop-color:#cc759c;stop-opacity:1;" offset="0.554688"/><stop style="stop-color:#cc759c;stop-opacity:1;" offset="0.558594"/><stop style="stop-color:#cd769b;stop-opacity:1;" offset="0.5625"/><stop style="stop-color:#cd769a;stop-opacity:1;" offset="0.566406"/><stop style="stop-color:#ce7699;stop-opacity:1;" offset="0.570312"/><stop style="stop-color:#ce7699;stop-opacity:1;" offset="0.574219"/><stop style="stop-color:#ce7798;stop-opacity:1;" offset="0.578125"/><stop style="stop-color:#cf7797;stop-opacity:1;" offset="0.582031"/><stop style="stop-color:#cf7797;stop-opacity:1;" offset="0.585937"/><stop style="stop-color:#d07796;stop-opacity:1;" offset="0.589844"/><stop style="stop-color:#d07895;stop-opacity:1;" offset="0.59375"/><stop style="stop-color:#d17895;stop-opacity:1;" offset="0.597656"/><stop style="stop-color:#d17894;stop-opacity:1;" offset="0.601563"/><stop style="stop-color:#d27893;stop-opacity:1;" offset="0.605469"/><stop style="stop-color:#d27893;stop-opacity:1;" offset="0.609375"/><stop style="stop-color:#d37992;stop-opacity:1;" offset="0.613281"/><stop style="stop-color:#d37991;stop-opacity:1;" offset="0.617188"/><stop style="stop-color:#d37990;stop-opacity:1;" offset="0.621094"/><stop style="stop-color:#d47990;stop-opacity:1;" offset="0.625"/><stop style="stop-color:#d47a8f;stop-opacity:1;" offset="0.628906"/><stop style="stop-color:#d57a8e;stop-opacity:1;" offset="0.632812"/><stop style="stop-color:#d57a8e;stop-opacity:1;" offset="0.636719"/><stop style="stop-color:#d67a8d;stop-opacity:1;" offset="0.640625"/><stop style="stop-color:#d67b8c;stop-opacity:1;" offset="0.644531"/><stop style="stop-color:#d77b8c;stop-opacity:1;" offset="0.648437"/><stop style="stop-color:#d77b8b;stop-opacity:1;" offset="0.652344"/><stop style="stop-color:#d77b8a;stop-opacity:1;" offset="0.65625"/><stop style="stop-color:#d87c89;stop-opacity:1;" offset="0.660156"/><stop style="stop-color:#d87c89;stop-opacity:1;" offset="0.664063"/><stop style="stop-color:#d97c88;stop-opacity:1;" offset="0.667969"/><stop style="stop-color:#d97c87;stop-opacity:1;" offset="0.671875"/><stop style="stop-color:#da7d87;stop-opacity:1;" offset="0.675781"/><stop style="stop-color:#da7d86;stop-opacity:1;" offset="0.679688"/><stop style="stop-color:#db7d85;stop-opacity:1;" offset="0.683594"/><stop style="stop-color:#db7d85;stop-opacity:1;" offset="0.6875"/><stop style="stop-color:#dc7e84;stop-opacity:1;" offset="0.691406"/><stop style="stop-color:#dc7e83;stop-opacity:1;" offset="0.695312"/><stop style="stop-color:#dc7e83;stop-opacity:1;" offset="0.699219"/><stop style="stop-color:#dd7e82;stop-opacity:1;" offset="0.703125"/><stop style="stop-color:#dd7f81;stop-opacity:1;" offset="0.707031"/><stop style="stop-color:#de7f80;stop-opacity:1;" offset="0.710937"/><stop style="stop-color:#de7f80;stop-opacity:1;" offset="0.714844"/><stop style="stop-color:#df7f7f;stop-opacity:1;" offset="0.71875"/><stop style="stop-color:#df807e;stop-opacity:1;" offset="0.722656"/><stop style="stop-color:#e0807e;stop-opacity:1;" offset="0.726563"/><stop style="stop-color:#e0807d;stop-opacity:1;" offset="0.730469"/><stop style="stop-color:#e0807c;stop-opacity:1;" offset="0.734375"/><stop style="stop-color:#e1817c;stop-opacity:1;" offset="0.738281"/><stop style="stop-color:#e1817b;stop-opacity:1;" offset="0.742188"/><stop style="stop-color:#e2817a;stop-opacity:1;" offset="0.746094"/><stop style="stop-color:#e2817a;stop-opacity:1;" offset="0.75"/><stop style="stop-color:#e38279;stop-opacity:1;" offset="0.753906"/><stop style="stop-color:#e38278;stop-opacity:1;" offset="0.757812"/><stop style="stop-color:#e48277;stop-opacity:1;" offset="0.761719"/><stop style="stop-color:#e48277;stop-opacity:1;" offset="0.765625"/><stop style="stop-color:#e48376;stop-opacity:1;" offset="0.769531"/><stop style="stop-color:#e58375;stop-opacity:1;" offset="0.773437"/><stop style="stop-color:#e58375;stop-opacity:1;" offset="0.777344"/><stop style="stop-color:#e68374;stop-opacity:1;" offset="0.78125"/><stop style="stop-color:#e68473;stop-opacity:1;" offset="0.785156"/><stop style="stop-color:#e78473;stop-opacity:1;" offset="0.789062"/><stop style="stop-color:#e78472;stop-opacity:1;" offset="0.792969"/><stop style="stop-color:#e88471;stop-opacity:1;" offset="0.796875"/><stop style="stop-color:#e88570;stop-opacity:1;" offset="0.800781"/><stop style="stop-color:#e98570;stop-opacity:1;" offset="0.804688"/><stop style="stop-color:#e9856f;stop-opacity:1;" offset="0.808594"/><stop style="stop-color:#e9856e;stop-opacity:1;" offset="0.8125"/><stop style="stop-color:#ea866e;stop-opacity:1;" offset="0.816406"/><stop style="stop-color:#ea866d;stop-opacity:1;" offset="0.820312"/><stop style="stop-color:#eb866c;stop-opacity:1;" offset="0.824219"/><stop style="stop-color:#eb866c;stop-opacity:1;" offset="0.828125"/><stop style="stop-color:#ec876b;stop-opacity:1;" offset="0.832031"/><stop style="stop-color:#ec876a;stop-opacity:1;" offset="0.835937"/><stop style="stop-color:#ed876a;stop-opacity:1;" offset="0.839844"/><stop style="stop-color:#ed8769;stop-opacity:1;" offset="0.84375"/><stop style="stop-color:#ed8768;stop-opacity:1;" offset="0.847656"/><stop style="stop-color:#ee8867;stop-opacity:1;" offset="0.851562"/><stop style="stop-color:#ee8867;stop-opacity:1;" offset="0.855469"/><stop style="stop-color:#ef8866;stop-opacity:1;" offset="0.859375"/><stop style="stop-color:#ef8865;stop-opacity:1;" offset="0.863281"/><stop style="stop-color:#f08965;stop-opacity:1;" offset="0.867188"/><stop style="stop-color:#f08964;stop-opacity:1;" offset="0.871094"/><stop style="stop-color:#f18963;stop-opacity:1;" offset="0.875"/><stop style="stop-color:#f18963;stop-opacity:1;" offset="0.878906"/><stop style="stop-color:#f28a62;stop-opacity:1;" offset="0.882812"/><stop style="stop-color:#f28a61;stop-opacity:1;" offset="0.886719"/><stop style="stop-color:#f28a60;stop-opacity:1;" offset="0.890625"/><stop style="stop-color:#f38a60;stop-opacity:1;" offset="0.894531"/><stop style="stop-color:#f38b5f;stop-opacity:1;" offset="0.898437"/><stop style="stop-color:#f48b5e;stop-opacity:1;" offset="0.902344"/><stop style="stop-color:#f48b5e;stop-opacity:1;" offset="0.90625"/><stop style="stop-color:#f58b5d;stop-opacity:1;" offset="0.910156"/><stop style="stop-color:#f58c5c;stop-opacity:1;" offset="0.914062"/><stop style="stop-color:#f68c5c;stop-opacity:1;" offset="0.917969"/><stop style="stop-color:#f68c5b;stop-opacity:1;" offset="0.921875"/><stop style="stop-color:#f68c5a;stop-opacity:1;" offset="0.925781"/><stop style="stop-color:#f78d5a;stop-opacity:1;" offset="0.929687"/><stop style="stop-color:#f78d59;stop-opacity:1;" offset="0.933594"/><stop style="stop-color:#f88d58;stop-opacity:1;" offset="0.9375"/><stop style="stop-color:#f88d57;stop-opacity:1;" offset="0.941406"/><stop style="stop-color:#f98e57;stop-opacity:1;" offset="0.945312"/><stop style="stop-color:#f98e56;stop-opacity:1;" offset="0.949219"/><stop style="stop-color:#fa8e55;stop-opacity:1;" offset="0.953125"/><stop style="stop-color:#fa8e55;stop-opacity:1;" offset="0.957031"/><stop style="stop-color:#fb8f54;stop-opacity:1;" offset="0.960938"/><stop style="stop-color:#fb8f53;stop-opacity:1;" offset="0.964844"/><stop style="stop-color:#fb8f53;stop-opacity:1;" offset="0.96875"/><stop style="stop-color:#fc8f52;stop-opacity:1;" offset="0.972656"/><stop style="stop-color:#fc9051;stop-opacity:1;" offset="0.976562"/><stop style="stop-color:#fd9050;stop-opacity:1;" offset="0.980469"/><stop style="stop-color:#fd9050;stop-opacity:1;" offset="0.984375"/><stop style="stop-color:#fe904f;stop-opacity:1;" offset="0.988281"/><stop style="stop-color:#fe914e;stop-opacity:1;" offset="0.992187"/><stop style="stop-color:#ff914e;stop-opacity:1;" offset="0.996094"/><stop style="stop-color:#ff914d;stop-opacity:1;" offset="1"/></linearGradient></defs><g id="cf962825f6"><g clip-rule="nonzero" clip-path="url(#a7de9cad36)"><g clip-rule="nonzero" clip-path="url(#1cbd8c4ca6)"><path style=" stroke:none;fill-rule:nonzero;fill:url(#b00f737637);" d="M 442.734375 84.988281 L 442.734375 735.515625 L 1093.265625 735.515625 L 1093.265625 84.988281 Z M 442.734375 84.988281 "/></g></g><g style="fill:#000000;fill-opacity:1;"><g transform="translate(518.04918, 478.771371)"><path style="stroke:none" d="M 99.507812 2.964844 L 93.578125 -16.875 L 103.496094 -19.839844 L 103.496094 -9.484375 L 54.203125 -9.484375 L 54.203125 -19.839844 L 64.125 -16.875 L 55.984375 10.355469 L -12.753906 10.355469 L 46.140625 -151.078125 L 113.195312 -151.078125 L 172.089844 10.355469 L 101.71875 10.355469 Z M 119.351562 -2.964844 L 109.429688 0 L 109.429688 -10.355469 L 157.292969 -10.355469 L 157.292969 0 L 147.5625 3.550781 L 96.222656 -137.175781 L 105.953125 -140.722656 L 105.953125 -130.367188 L 53.386719 -130.367188 L 53.386719 -140.722656 L 63.113281 -137.175781 L 11.773438 3.550781 L 2.046875 0 L 2.046875 -10.355469 L 48.273438 -10.355469 L 48.273438 0 L 38.351562 -2.964844 L 46.492188 -30.195312 L 111.210938 -30.195312 Z M 63.613281 -61.695312 L 94.089844 -61.695312 L 94.089844 -51.339844 L 84.152344 -48.421875 L 69.425781 -98.53125 L 79.363281 -101.453125 L 79.363281 -91.097656 L 78.542969 -91.097656 L 78.542969 -101.453125 L 88.46875 -98.496094 L 73.535156 -48.382812 L 63.613281 -51.339844 Z M 49.722656 -40.984375 L 70.824219 -111.808594 L 87.113281 -111.808594 L 107.925781 -40.984375 Z M 49.722656 -40.984375 "/></g></g><g style="fill:#000000;fill-opacity:1;"><g transform="translate(677.181679, 478.771371)"><path style="stroke:none" d="M 99.6875 0 L 99.6875 -53.386719 L 110.042969 -53.386719 L 110.042969 -43.03125 L 60.339844 -43.03125 L 60.339844 -53.386719 L 70.695312 -53.386719 L 70.695312 10.355469 L 4.78125 10.355469 L 4.78125 -151.078125 L 70.695312 -151.078125 L 70.695312 -89.382812 L 60.339844 -89.382812 L 60.339844 -99.738281 L 110.042969 -99.738281 L 110.042969 -89.382812 L 99.6875 -89.382812 L 99.6875 -151.078125 L 165.601562 -151.078125 L 165.601562 10.355469 L 99.6875 10.355469 Z M 120.398438 0 L 110.042969 0 L 110.042969 -10.355469 L 155.246094 -10.355469 L 155.246094 0 L 144.890625 0 L 144.890625 -140.722656 L 155.246094 -140.722656 L 155.246094 -130.367188 L 110.042969 -130.367188 L 110.042969 -140.722656 L 120.398438 -140.722656 L 120.398438 -79.03125 L 49.984375 -79.03125 L 49.984375 -140.722656 L 60.339844 -140.722656 L 60.339844 -130.367188 L 15.136719 -130.367188 L 15.136719 -140.722656 L 25.492188 -140.722656 L 25.492188 0 L 15.136719 0 L 15.136719 -10.355469 L 60.339844 -10.355469 L 60.339844 0 L 49.984375 0 L 49.984375 -63.738281 L 120.398438 -63.738281 Z M 120.398438 0 "/></g></g><g style="fill:#000000;fill-opacity:1;"><g transform="translate(847.563901, 478.771371)"><path style="stroke:none" d="M -1.152344 -70.363281 C -1.152344 -97.214844 6.519531 -117.835938 21.859375 -132.21875 C 37.007812 -146.429688 58.085938 -153.53125 85.089844 -153.53125 C 112.09375 -153.53125 133.203125 -146.394531 148.421875 -132.117188 C 163.828125 -117.664062 171.53125 -97.078125 171.53125 -70.363281 C 171.53125 -52.777344 168.144531 -37.792969 161.363281 -25.402344 C 154.386719 -12.652344 144.261719 -3 130.992188 3.558594 L 126.40625 -5.726562 L 133.773438 -13.003906 L 183.296875 37.148438 L 100.082031 37.148438 L 75.3125 9.34375 L 83.042969 2.453125 L 82.863281 12.808594 C 56.414062 12.351562 35.835938 5.007812 21.128906 -9.230469 C 6.273438 -23.605469 -1.152344 -43.980469 -1.152344 -70.363281 Z M 19.558594 -70.363281 C 19.558594 -49.832031 24.882812 -34.417969 35.53125 -24.109375 C 46.324219 -13.664062 62.21875 -8.261719 83.222656 -7.898438 L 87.757812 -7.820312 L 112.457031 19.90625 L 104.726562 26.792969 L 104.726562 16.441406 L 158.519531 16.441406 L 158.519531 26.792969 L 151.152344 34.070312 L 108.960938 -8.660156 L 121.820312 -15.011719 C 131.183594 -19.636719 138.308594 -26.414062 143.195312 -35.34375 C 148.28125 -44.636719 150.824219 -56.308594 150.824219 -70.363281 C 150.824219 -91.097656 145.300781 -106.648438 134.253906 -117.011719 C 123.019531 -127.554688 106.628906 -132.824219 85.089844 -132.824219 C 63.546875 -132.824219 47.191406 -127.585938 36.027344 -117.113281 C 25.046875 -106.820312 19.558594 -91.234375 19.558594 -70.363281 Z M 104.597656 -76.90625 C 104.597656 -84.273438 102.890625 -89.914062 99.476562 -93.828125 C 96.425781 -97.324219 91.632812 -99.074219 85.089844 -99.074219 C 78.574219 -99.074219 73.828125 -97.34375 70.847656 -93.878906 C 67.472656 -89.957031 65.785156 -84.300781 65.785156 -76.90625 L 65.785156 -63.816406 C 65.785156 -56.421875 67.472656 -50.765625 70.847656 -46.84375 C 73.828125 -43.382812 78.574219 -41.648438 85.089844 -41.648438 C 91.632812 -41.648438 96.425781 -43.398438 99.476562 -46.894531 C 102.890625 -50.808594 104.597656 -56.449219 104.597656 -63.816406 Z M 125.304688 -76.90625 L 125.304688 -63.816406 C 125.304688 -51.273438 121.898438 -41.097656 115.085938 -33.285156 C 107.910156 -25.054688 97.910156 -20.941406 85.089844 -20.941406 C 72.238281 -20.941406 62.261719 -25.070312 55.148438 -33.335938 C 48.433594 -41.140625 45.074219 -51.300781 45.074219 -63.816406 L 45.074219 -76.90625 C 45.074219 -89.421875 48.433594 -99.582031 55.148438 -107.386719 C 62.261719 -115.652344 72.238281 -119.785156 85.089844 -119.785156 C 97.910156 -119.785156 107.910156 -115.667969 115.085938 -107.441406 C 121.898438 -99.625 125.304688 -89.449219 125.304688 -76.90625 Z M 125.304688 -76.90625 "/></g></g><g style="fill:#ffffff;fill-opacity:1;"><g transform="translate(518.04918, 478.771371)"><path style="stroke:none" d="M 109.4375 0 L 103.5 -19.84375 L 54.203125 -19.84375 L 48.265625 0 L 2.046875 0 L 53.390625 -140.734375 L 105.953125 -140.734375 L 157.296875 0 Z M 63.609375 -51.34375 L 94.09375 -51.34375 L 79.359375 -101.453125 L 78.546875 -101.453125 Z M 63.609375 -51.34375 "/></g></g><g style="fill:#ffffff;fill-opacity:1;"><g transform="translate(677.181679, 478.771371)"><path style="stroke:none" d="M 110.046875 0 L 110.046875 -53.390625 L 60.34375 -53.390625 L 60.34375 0 L 15.140625 0 L 15.140625 -140.734375 L 60.34375 -140.734375 L 60.34375 -89.390625 L 110.046875 -89.390625 L 110.046875 -140.734375 L 155.25 -140.734375 L 155.25 0 Z M 110.046875 0 "/></g></g><g style="fill:#ffffff;fill-opacity:1;"><g transform="translate(847.563901, 478.771371)"><path style="stroke:none" d="M 9.203125 -70.359375 C 9.203125 -94.222656 15.78125 -112.328125 28.9375 -124.671875 C 42.101562 -137.015625 60.820312 -143.1875 85.09375 -143.1875 C 109.363281 -143.1875 128.113281 -136.976562 141.34375 -124.5625 C 154.570312 -112.15625 161.1875 -94.085938 161.1875 -70.359375 C 161.1875 -54.546875 158.21875 -41.21875 152.28125 -30.375 C 146.351562 -19.53125 137.726562 -11.316406 126.40625 -5.734375 L 158.53125 26.796875 L 104.734375 26.796875 L 83.046875 2.453125 C 59.316406 2.046875 41.078125 -4.328125 28.328125 -16.671875 C 15.578125 -29.015625 9.203125 -46.910156 9.203125 -70.359375 Z M 114.953125 -76.90625 C 114.953125 -86.863281 112.394531 -94.773438 107.28125 -100.640625 C 102.164062 -106.503906 94.769531 -109.4375 85.09375 -109.4375 C 75.40625 -109.4375 68.039062 -106.503906 63 -100.640625 C 57.957031 -94.773438 55.4375 -86.863281 55.4375 -76.90625 L 55.4375 -63.8125 C 55.4375 -53.863281 57.957031 -45.957031 63 -40.09375 C 68.039062 -34.226562 75.40625 -31.296875 85.09375 -31.296875 C 94.769531 -31.296875 102.164062 -34.226562 107.28125 -40.09375 C 112.394531 -45.957031 114.953125 -53.863281 114.953125 -63.8125 Z M 114.953125 -76.90625 "/></g></g></g></svg>