<svg xmlns="http://www.w3.org/2000/svg" xmlns:xlink="http://www.w3.org/1999/xlink" width="2048" zoomAndPan="magnify" viewBox="0 0 1536 821.249975" height="1095" preserveAspectRatio="xMidYMid meet" version="1.2"><defs><clipPath id="c2988ce49f"><path d="M 0.699219 208.992188 L 403.21875 208.992188 L 403.21875 611.511719 L 0.699219 611.511719 Z M 0.699219 208.992188 "/></clipPath><clipPath id="0f0accefe9"><path d="M 201.960938 208.992188 C 90.808594 208.992188 0.699219 299.097656 0.699219 410.25 C 0.699219 521.402344 90.808594 611.511719 201.960938 611.511719 C 313.113281 611.511719 403.21875 521.402344 403.21875 410.25 C 403.21875 299.097656 313.113281 208.992188 201.960938 208.992188 Z M 201.960938 208.992188 "/></clipPath></defs><g id="e2a47a41fc"><g clip-rule="nonzero" clip-path="url(#c2988ce49f)"><g clip-rule="nonzero" clip-path="url(#0f0accefe9)"><path style=" stroke:none;fill-rule:nonzero;fill:#545454;fill-opacity:1;" d="M 0.699219 208.992188 L 403.21875 208.992188 L 403.21875 611.511719 L 0.699219 611.511719 Z M 0.699219 208.992188 "/></g></g><g style="fill:#ffffff;fill-opacity:1;"><g transform="translate(18.825867, 460.45446)"><path style="stroke:none" d="M 80.171875 0 L 75.828125 -14.53125 L 39.71875 -14.53125 L 35.359375 0 L 1.5 0 L 39.109375 -103.109375 L 77.625 -103.109375 L 115.234375 0 Z M 46.609375 -37.609375 L 68.9375 -37.609375 L 58.140625 -74.328125 L 57.546875 -74.328125 Z M 46.609375 -37.609375 "/></g></g><g style="fill:#ffffff;fill-opacity:1;"><g transform="translate(135.419408, 460.45446)"><path style="stroke:none" d="M 80.625 0 L 80.625 -39.109375 L 44.203125 -39.109375 L 44.203125 0 L 11.09375 0 L 11.09375 -103.109375 L 44.203125 -103.109375 L 44.203125 -65.484375 L 80.625 -65.484375 L 80.625 -103.109375 L 113.75 -103.109375 L 113.75 0 Z M 80.625 0 "/></g></g><g style="fill:#ffffff;fill-opacity:1;"><g transform="translate(260.255421, 460.45446)"><path style="stroke:none" d="M 6.75 -51.546875 C 6.75 -69.035156 11.566406 -82.300781 21.203125 -91.34375 C 30.847656 -100.382812 44.5625 -104.90625 62.34375 -104.90625 C 80.125 -104.90625 93.859375 -100.359375 103.546875 -91.265625 C 113.242188 -82.171875 118.09375 -68.929688 118.09375 -51.546875 C 118.09375 -39.960938 115.914062 -30.195312 111.5625 -22.25 C 107.21875 -14.3125 100.898438 -8.296875 92.609375 -4.203125 L 116.140625 19.625 L 76.734375 19.625 L 60.84375 1.796875 C 43.457031 1.492188 30.09375 -3.175781 20.75 -12.21875 C 11.414062 -21.257812 6.75 -34.367188 6.75 -51.546875 Z M 84.21875 -56.34375 C 84.21875 -63.632812 82.34375 -69.425781 78.59375 -73.71875 C 74.851562 -78.019531 69.4375 -80.171875 62.34375 -80.171875 C 55.25 -80.171875 49.851562 -78.019531 46.15625 -73.71875 C 42.457031 -69.425781 40.609375 -63.632812 40.609375 -56.34375 L 40.609375 -46.75 C 40.609375 -39.457031 42.457031 -33.660156 46.15625 -29.359375 C 49.851562 -25.066406 55.25 -22.921875 62.34375 -22.921875 C 69.4375 -22.921875 74.851562 -25.066406 78.59375 -29.359375 C 82.34375 -33.660156 84.21875 -39.457031 84.21875 -46.75 Z M 84.21875 -56.34375 "/></g></g><g style="fill:#000000;fill-opacity:1;"><g transform="translate(437.114776, 450.862985)"><path style="stroke:none" d="M 75.375 0 L 71.28125 -13.671875 L 37.328125 -13.671875 L 33.25 0 L 1.40625 0 L 36.765625 -96.921875 L 72.96875 -96.921875 L 108.328125 0 Z M 43.8125 -35.359375 L 64.796875 -35.359375 L 54.65625 -69.875 L 54.09375 -69.875 Z M 43.8125 -35.359375 "/></g></g><g style="fill:#000000;fill-opacity:1;"><g transform="translate(546.712661, 450.862985)"><path style="stroke:none" d="M 9.4375 0 L 9.4375 -102.140625 L 37.46875 -102.140625 L 37.46875 0 Z M 9.4375 0 "/></g></g><g style="fill:#000000;fill-opacity:1;"><g transform="translate(593.622809, 450.862985)"><path style="stroke:none" d="M 38.734375 -103.828125 C 40.804688 -103.828125 43.390625 -103.566406 46.484375 -103.046875 C 49.585938 -102.535156 52.078125 -101.953125 53.953125 -101.296875 L 53.953125 -84.8125 L 47.46875 -84.8125 C 44.46875 -84.8125 42.398438 -84.242188 41.265625 -83.109375 C 40.140625 -81.984375 39.578125 -80.0625 39.578125 -77.34375 L 39.578125 -74.375 L 53.953125 -74.375 L 53.953125 -55.359375 L 39.578125 -55.359375 L 39.578125 0 L 11.546875 0 L 11.546875 -55.359375 L 1.125 -55.359375 L 1.125 -74.375 L 11.546875 -74.375 L 11.546875 -77.484375 C 11.546875 -87.054688 13.894531 -93.835938 18.59375 -97.828125 C 23.289062 -101.828125 30.003906 -103.828125 38.734375 -103.828125 Z M 38.734375 -103.828125 "/></g></g><g style="fill:#000000;fill-opacity:1;"><g transform="translate(648.42174, 450.862985)"><path style="stroke:none" d="M 9.4375 -83.109375 L 9.4375 -102.140625 L 37.46875 -102.140625 L 37.46875 -83.109375 Z M 9.4375 0 L 9.4375 -74.375 L 37.46875 -74.375 L 37.46875 0 Z M 9.4375 0 "/></g></g><g style="fill:#000000;fill-opacity:1;"><g transform="translate(695.331899, 450.862985)"><path style="stroke:none" d="M 46.90625 -76.078125 C 60.53125 -76.078125 70.929688 -72.878906 78.109375 -66.484375 C 85.296875 -60.097656 88.890625 -50.332031 88.890625 -37.1875 L 88.890625 -32.40625 L 33.109375 -32.40625 C 33.109375 -27.050781 34.304688 -23.007812 36.703125 -20.28125 C 39.097656 -17.5625 42.875 -16.203125 48.03125 -16.203125 C 52.726562 -16.203125 56.179688 -17.1875 58.390625 -19.15625 C 60.597656 -21.132812 61.703125 -23.765625 61.703125 -27.046875 L 88.890625 -27.046875 C 88.890625 -18.035156 85.460938 -10.992188 78.609375 -5.921875 C 71.753906 -0.847656 61.753906 1.6875 48.609375 1.6875 C 34.796875 1.6875 24.085938 -1.523438 16.484375 -7.953125 C 8.878906 -14.390625 5.078125 -24.132812 5.078125 -37.1875 C 5.078125 -49.957031 8.785156 -59.628906 16.203125 -66.203125 C 23.617188 -72.785156 33.851562 -76.078125 46.90625 -76.078125 Z M 48.03125 -58.1875 C 39.207031 -58.1875 34.28125 -54.003906 33.25 -45.640625 L 60.578125 -45.640625 C 60.578125 -49.492188 59.472656 -52.546875 57.265625 -54.796875 C 55.054688 -57.054688 51.976562 -58.1875 48.03125 -58.1875 Z M 48.03125 -58.1875 "/></g><g transform="translate(789.293083, 450.862985)"><path style="stroke:none" d=""/></g></g><g style="fill:#000000;fill-opacity:1;"><g transform="translate(836.203195, 450.862985)"><path style="stroke:none" d="M 75.796875 0 L 75.796875 -36.765625 L 41.5625 -36.765625 L 41.5625 0 L 10.421875 0 L 10.421875 -96.921875 L 41.5625 -96.921875 L 41.5625 -61.5625 L 75.796875 -61.5625 L 75.796875 -96.921875 L 106.921875 -96.921875 L 106.921875 0 Z M 75.796875 0 "/></g></g><g style="fill:#000000;fill-opacity:1;"><g transform="translate(953.549024, 450.862985)"><path style="stroke:none" d="M 6.34375 -48.46875 C 6.34375 -64.894531 10.875 -77.359375 19.9375 -85.859375 C 29 -94.359375 41.890625 -98.609375 58.609375 -98.609375 C 75.328125 -98.609375 88.238281 -94.332031 97.34375 -85.78125 C 106.457031 -77.238281 111.015625 -64.800781 111.015625 -48.46875 C 111.015625 -37.570312 108.96875 -28.390625 104.875 -20.921875 C 100.789062 -13.453125 94.851562 -7.789062 87.0625 -3.9375 L 109.171875 18.453125 L 72.125 18.453125 L 57.1875 1.6875 C 40.851562 1.40625 28.296875 -2.984375 19.515625 -11.484375 C 10.734375 -19.984375 6.34375 -32.3125 6.34375 -48.46875 Z M 79.171875 -52.96875 C 79.171875 -59.820312 77.410156 -65.269531 73.890625 -69.3125 C 70.367188 -73.351562 65.273438 -75.375 58.609375 -75.375 C 51.941406 -75.375 46.867188 -73.351562 43.390625 -69.3125 C 39.910156 -65.269531 38.171875 -59.820312 38.171875 -52.96875 L 38.171875 -43.953125 C 38.171875 -37.097656 39.910156 -31.648438 43.390625 -27.609375 C 46.867188 -23.566406 51.941406 -21.546875 58.609375 -21.546875 C 65.273438 -21.546875 70.367188 -23.566406 73.890625 -27.609375 C 77.410156 -31.648438 79.171875 -37.097656 79.171875 -43.953125 Z M 79.171875 -52.96875 "/></g></g><g style="fill:#000000;fill-opacity:1;"><g transform="translate(1070.894853, 450.862985)"><path style="stroke:none" d=""/></g></g><g style="fill:#000000;fill-opacity:1;"><g transform="translate(1117.804967, 450.862985)"><path style="stroke:none" d="M 52.40625 -96.921875 C 86.3125 -96.921875 103.265625 -80.769531 103.265625 -48.46875 C 103.265625 -16.15625 86.3125 0 52.40625 0 L 10.421875 0 L 10.421875 -96.921875 Z M 41.5625 -23.25 L 51.84375 -23.25 C 64.894531 -23.25 71.421875 -30.242188 71.421875 -44.234375 L 71.421875 -52.6875 C 71.421875 -66.675781 64.894531 -73.671875 51.84375 -73.671875 L 41.5625 -73.671875 Z M 41.5625 -23.25 "/></g></g><g style="fill:#000000;fill-opacity:1;"><g transform="translate(1227.402852, 450.862985)"><path style="stroke:none" d="M 46.90625 -76.078125 C 59.96875 -76.078125 70.226562 -72.765625 77.6875 -66.140625 C 85.15625 -59.515625 88.890625 -49.863281 88.890625 -37.1875 C 88.890625 -24.507812 85.15625 -14.859375 77.6875 -8.234375 C 70.226562 -1.617188 59.96875 1.6875 46.90625 1.6875 C 33.851562 1.6875 23.617188 -1.597656 16.203125 -8.171875 C 8.785156 -14.742188 5.078125 -24.414062 5.078125 -37.1875 C 5.078125 -49.957031 8.785156 -59.628906 16.203125 -66.203125 C 23.617188 -72.785156 33.851562 -76.078125 46.90625 -76.078125 Z M 46.90625 -57.046875 C 37.707031 -57.046875 33.109375 -51.742188 33.109375 -41.140625 L 33.109375 -33.109375 C 33.109375 -22.585938 37.707031 -17.328125 46.90625 -17.328125 C 56.207031 -17.328125 60.859375 -22.585938 60.859375 -33.109375 L 60.859375 -41.140625 C 60.859375 -51.742188 56.207031 -57.046875 46.90625 -57.046875 Z M 46.90625 -57.046875 "/></g><g transform="translate(1321.364036, 450.862985)"><path style="stroke:none" d="M 46.90625 -76.078125 C 59.113281 -76.078125 69 -73.46875 76.5625 -68.25 C 84.125 -63.039062 87.90625 -55.082031 87.90625 -44.375 L 60.71875 -44.375 C 60.71875 -52.820312 56.113281 -57.046875 46.90625 -57.046875 C 37.707031 -57.046875 33.109375 -51.742188 33.109375 -41.140625 L 33.109375 -33.109375 C 33.109375 -22.585938 37.894531 -17.328125 47.46875 -17.328125 C 57.050781 -17.328125 61.84375 -21.644531 61.84375 -30.28125 L 87.90625 -30.28125 C 87.90625 -19.488281 84.125 -11.460938 76.5625 -6.203125 C 69 -0.941406 59.113281 1.6875 46.90625 1.6875 C 33.851562 1.6875 23.617188 -1.597656 16.203125 -8.171875 C 8.785156 -14.742188 5.078125 -24.414062 5.078125 -37.1875 C 5.078125 -49.957031 8.785156 -59.628906 16.203125 -66.203125 C 23.617188 -72.785156 33.851562 -76.078125 46.90625 -76.078125 Z M 46.90625 -76.078125 "/></g><g transform="translate(1415.32522, 450.862985)"><path style="stroke:none" d="M 43.8125 -76.078125 C 53.769531 -76.078125 62.195312 -74.125 69.09375 -70.21875 C 76 -66.320312 79.453125 -60.289062 79.453125 -52.125 L 53.390625 -52.125 C 53.390625 -54.84375 52.171875 -56.769531 49.734375 -57.90625 C 48.035156 -58.84375 45.921875 -59.3125 43.390625 -59.3125 C 36.628906 -59.3125 33.25 -57.710938 33.25 -54.515625 C 33.25 -52.734375 34.421875 -51.46875 36.765625 -50.71875 C 39.117188 -49.96875 42.96875 -49.164062 48.3125 -48.3125 C 54.894531 -47.375 60.390625 -46.269531 64.796875 -45 C 69.210938 -43.738281 73.0625 -41.488281 76.34375 -38.25 C 79.632812 -35.007812 81.28125 -30.476562 81.28125 -24.65625 C 81.28125 -15.164062 77.734375 -8.398438 70.640625 -4.359375 C 63.554688 -0.328125 54.285156 1.6875 42.828125 1.6875 C 36.253906 1.6875 30.054688 0.773438 24.234375 -1.046875 C 18.410156 -2.878906 13.664062 -5.722656 10 -9.578125 C 6.34375 -13.429688 4.515625 -18.316406 4.515625 -24.234375 L 30.5625 -24.234375 L 30.5625 -23.671875 C 30.65625 -20.472656 31.992188 -18.238281 34.578125 -16.96875 C 37.160156 -15.707031 39.910156 -15.078125 42.828125 -15.078125 C 50.617188 -15.078125 54.515625 -16.90625 54.515625 -20.5625 C 54.515625 -22.445312 53.289062 -23.8125 50.84375 -24.65625 C 48.40625 -25.5 44.414062 -26.390625 38.875 -27.328125 C 32.207031 -28.453125 26.738281 -29.671875 22.46875 -30.984375 C 18.195312 -32.304688 14.460938 -34.539062 11.265625 -37.6875 C 8.078125 -40.832031 6.484375 -45.222656 6.484375 -50.859375 C 6.484375 -59.960938 9.929688 -66.441406 16.828125 -70.296875 C 23.734375 -74.148438 32.726562 -76.078125 43.8125 -76.078125 Z M 43.8125 -76.078125 "/></g></g></g></svg>